<svg width="25" height="21" viewBox="0 0 25 21" fill="none" xmlns="http://www.w3.org/2000/svg">
<path d="M2.70312 3.21558L10.3377 8.98091L10.3402 8.98302C11.1879 9.60468 11.612 9.9157 12.0766 10.0358C12.4872 10.142 12.9188 10.142 13.3293 10.0358C13.7943 9.91559 14.2196 9.60367 15.0688 8.98091C15.0688 8.98091 19.9657 5.223 22.7031 3.21558M1.45312 15.4658V5.96582C1.45312 4.56569 1.45312 3.8651 1.72561 3.33032C1.96529 2.85992 2.34747 2.47774 2.81787 2.23806C3.35265 1.96558 4.05324 1.96558 5.45337 1.96558H19.9534C21.3535 1.96558 22.0526 1.96558 22.5874 2.23806C23.0578 2.47774 23.4412 2.85992 23.6809 3.33032C23.9531 3.86458 23.9531 4.56432 23.9531 5.96171V15.47C23.9531 16.8674 23.9531 17.5662 23.6809 18.1004C23.4412 18.5708 23.0578 18.9537 22.5874 19.1934C22.0531 19.4656 21.3544 19.4656 19.957 19.4656H5.44926C4.05187 19.4656 3.35213 19.4656 2.81787 19.1934C2.34747 18.9537 1.96529 18.5708 1.72561 18.1004C1.45312 17.5656 1.45312 16.866 1.45312 15.4658Z" stroke="white" stroke-width="2" stroke-linecap="round" stroke-linejoin="round"/>
</svg>
