<svg width="31" height="22" viewBox="0 0 31 22" fill="none" xmlns="http://www.w3.org/2000/svg">
<path d="M19.3787 13.417C15.8125 13.417 8.69356 15.1934 8.69356 18.7596V21.4309H30.0639V18.7596C30.0639 15.1934 22.9449 13.417 19.3787 13.417ZM7.35791 8.07442V4.06748H4.68662V8.07442H0.679688V10.7457H4.68662V14.7526H7.35791V10.7457H11.3648V8.07442M19.3787 10.7457C20.7957 10.7457 22.1546 10.1828 23.1565 9.1809C24.1584 8.17897 24.7213 6.82007 24.7213 5.40313C24.7213 3.98619 24.1584 2.62728 23.1565 1.62535C22.1546 0.623424 20.7957 0.0605469 19.3787 0.0605469C17.9618 0.0605469 16.6029 0.623424 15.6009 1.62535C14.599 2.62728 14.0361 3.98619 14.0361 5.40313C14.0361 6.82007 14.599 8.17897 15.6009 9.1809C16.6029 10.1828 17.9618 10.7457 19.3787 10.7457Z" fill="#2B5204"/>
</svg>
